{"title":"Citadel.2012.480p.BRRip.XviD.AC3-PTpOWeR","uid":8040728,"size":1359057420,"categoryP":"video","categoryS":"movies","magnet":"?xt=urn:btih:97cbab01876d5c639611f4a10bd6d1a744c331f7&amp;dn=Citadel.2012.480p.BRRip.XviD.AC3-PTpOWeR&amp;tr=udp%3A%2F%2Ftracker.openbittorrent.com%3A80&amp;tr=udp%3A%2F%2Fopen.demonii.com%3A1337&amp;tr=udp%3A%2F%2Ftracker.coppersurfer.tk%3A6969&amp;tr=udp%3A%2F%2Fexodus.desync.com%3A6969","seeders":1,"leechers":0,"uploader":"xxxlavalxxx","files":2,"time":1358622732,"description":" &lt;a href=&quot;http://www.shotpix.com/images/48703286561501815724.jpg&quot; rel=&quot;nofollow&quot; target=&quot;_NEW&quot;&gt;http://www.shotpix.com/images/48703286561501815724.jpg&lt;/a&gt;\n\n\n &lt;a href=&quot;\nhttp://www.imdb.com/title/tt1641975/&quot; rel=&quot;nofollow&quot; target=&quot;_NEW&quot;&gt;\nhttp://www.imdb.com/title/tt1641975/&lt;/a&gt;\n\n\nPlot:An agoraphobic father teams up with a renegade priest to save his daughter from the clutches of a gang of twisted feral children who committed an act of violence against his family years earlier.\n \n\n\nDirector: \nCiaran Foy\n\n Writer: \nCiaran Foy\n \nStars:\n Aneurin Barnard, James Cosmo and Wunmi Mosaku\n\nGenres:\n Drama | Horror | Thriller \n\nCountry:\nIreland |UK \n\nLanguage:\nEnglish \n\nFormat                                   : AVI\nFormat/Info                              : Audio Video Interleave\nFile size                                : 1.27 GiB\nDuration                                 : 1h 24mn\nOverall bit rate                         : 2 147 Kbps\nWriting application                      : VirtualDubMod 1.5.10.2 (build 2540/release)\nWriting library                          : VirtualDubMod build 2540/release\n\nVideo\nID                                       : 0\nFormat                                   : MPEG-4 Visual\nFormat profile                           : Advanced Simple@L5\nFormat settings, BVOP                    : 2\nFormat settings, QPel                    : No\nFormat settings, GMC                     : No warppoints\nFormat settings, Matrix                  : Default (H.263)\nMuxing mode                              : Packed bitstream\nCodec ID                                 : XVID\nCodec ID/Hint                            : XviD\nDuration                                 : 1h 24mn\nBit rate                                 : 1 690 Kbps\nWidth                                    : 720 pixels\nHeight                                   : 400 pixels\nDisplay aspect ratio                     : 16:9\nFrame rate                               : 23.976 fps\nColor space                              : YUV\nChroma subsampling                       : 4:2:0\nBit depth                                : 8 bits\nScan type                                : Progressive\nCompression mode                         : Lossy\nBits/(Pixel*Frame)                       : 0.245\nStream size                              : 1 020 MiB (79%)\nWriting library                          : XviD 63\n\nAudio\nID                                       : 1\nFormat                                   : AC-3\nFormat/Info                              : Audio Coding 3\nMode extension                           : CM (complete main)\nFormat settings, Endianness              : Big\nCodec ID                                 : 2000\nDuration                                 : 1h 24mn\nBit rate mode                            : Constant\nBit rate                                 : 448 Kbps\nChannel(s)                               : 6 channels\nChannel positions                        : Front: L C R, Side: L R, LFE\nSampling rate                            : 48.0 KHz\nBit depth                                : 16 bits\nCompression mode                         : Lossy\nStream size                              : 270 MiB (21%)\nAlignment                                : Split accross interleaves\nInterleave, duration                     : 42 ms (1.00 video frame)\nInterleave, preload duration             : 500 ms\n\n\n\n &lt;a href=&quot;\nhttp://www.shotpix.com/images/34446558338495180071.png&quot; rel=&quot;nofollow&quot; target=&quot;_NEW&quot;&gt;\nhttp://www.shotpix.com/images/34446558338495180071.png&lt;/a&gt;\n &lt;a href=&quot;\nhttp://www.shotpix.com/images/64954559838893086397.png&quot; rel=&quot;nofollow&quot; target=&quot;_NEW&quot;&gt;\nhttp://www.shotpix.com/images/64954559838893086397.png&lt;/a&gt;\n &lt;a href=&quot;\nhttp://www.shotpix.com/images/24574600284793356500.png&quot; rel=&quot;nofollow&quot; target=&quot;_NEW&quot;&gt;\nhttp://www.shotpix.com/images/24574600284793356500.png&lt;/a&gt;\n &lt;a href=&quot;\nhttp://www.shotpix.com/images/21579842573370183974.png&quot; rel=&quot;nofollow&quot; target=&quot;_NEW&quot;&gt;\nhttp://www.shotpix.com/images/21579842573370183974.png&lt;/a&gt;\n","torrent":{"xt":"urn:btih:97cbab01876d5c639611f4a10bd6d1a744c331f7","amp;dn":"Citadel.2012.480p.BRRip.XviD.AC3-PTpOWeR","amp;tr":["udp%3A%2F%2Ftracker.openbittorrent.com%3A80","udp%3A%2F%2Fopen.demonii.com%3A1337","udp%3A%2F%2Ftracker.coppersurfer.tk%3A6969","udp%3A%2F%2Fexodus.desync.com%3A6969"],"infoHash":"97cbab01876d5c639611f4a10bd6d1a744c331f7","infoHashBuffer":{"type":"Buffer","data":[151,203,171,1,135,109,92,99,150,17,244,161,11,214,209,167,68,195,49,247]},"announce":[],"urlList":[]}}